<?xml version="1.0" encoding="UTF-8" standalone="no"?>
<svg
   xmlns:dc="http://purl.org/dc/elements/1.1/"
   xmlns:cc="http://creativecommons.org/ns#"
   xmlns:rdf="http://www.w3.org/1999/02/22-rdf-syntax-ns#"
   xmlns:svg="http://www.w3.org/2000/svg"
   xmlns="http://www.w3.org/2000/svg"
   xmlns:sodipodi="http://sodipodi.sourceforge.net/DTD/sodipodi-0.dtd"
   xmlns:inkscape="http://www.inkscape.org/namespaces/inkscape"
   sodipodi:docname="logo.svg"
   inkscape:version="1.0 (4035a4fb49, 2020-05-01)"
   id="svg8"
   version="1.1"
   viewBox="0 0 210 297"
   height="297mm"
   width="210mm">
  <defs
     id="defs2">
    <rect
       id="rect968"
       height="86.27963"
       width="211.18013"
       y="15.184452"
       x="350.89614" />
  </defs>
  <sodipodi:namedview
     inkscape:window-maximized="1"
     inkscape:window-y="28"
     inkscape:window-x="0"
     inkscape:window-height="821"
     inkscape:window-width="1600"
     showgrid="false"
     inkscape:document-rotation="0"
     inkscape:current-layer="g917"
     inkscape:document-units="mm"
     inkscape:cy="668.3714"
     inkscape:cx="305.11313"
     inkscape:zoom="0.49497475"
     inkscape:pageshadow="2"
     inkscape:pageopacity="0.0"
     borderopacity="1.0"
     bordercolor="#666666"
     pagecolor="#ffffff"
     id="base" />
  <metadata
     id="metadata5">
    <rdf:RDF>
      <cc:Work
         rdf:about="">
        <dc:format>image/svg+xml</dc:format>
        <dc:type
           rdf:resource="http://purl.org/dc/dcmitype/StillImage" />
        <dc:title></dc:title>
      </cc:Work>
    </rdf:RDF>
  </metadata>
  <g
     id="layer1"
     inkscape:groupmode="layer"
     inkscape:label="Layer 1">
    <g
       style="opacity:0.999"
       transform="matrix(0.86150334,0,0,0.86150334,27.814525,5.2865339)"
       id="g865">
      <g
         transform="matrix(0.73398512,0,0,0.73398512,57.356416,59.793414)"
         id="g869">
        <g
           id="g917"
           transform="matrix(0.70028462,-0.05686043,0.07361229,0.90659804,84.349967,19.746665)">
          <g
             inkscape:export-ydpi="123.94392"
             inkscape:export-xdpi="123.94392"
             transform="matrix(0.46734918,0,0,0.46734918,-210.72938,109.01972)"
             id="g930">
            <rect
               style="fill:#633320;fill-opacity:1;fill-rule:evenodd;stroke:none;stroke-width:23.7497;stroke-linecap:square;stroke-linejoin:miter;stroke-miterlimit:4;stroke-dasharray:none;stroke-dashoffset:0;stroke-opacity:1;paint-order:stroke markers fill"
               id="rect919"
               width="320.52322"
               height="157.05399"
               x="-168.34836"
               y="72.1147"
               transform="matrix(0.99803898,0.06259547,-0.10454169,0.99452051,0,0)"
               ry="20.374033" />
            <rect
               style="fill:#331a11;fill-opacity:1;fill-rule:evenodd;stroke:none;stroke-width:23.7497;stroke-linecap:square;stroke-linejoin:miter;stroke-miterlimit:4;stroke-dasharray:none;stroke-dashoffset:0;stroke-opacity:1;paint-order:stroke markers fill"
               id="rect921"
               width="130.05992"
               height="54.171009"
               x="35.718311"
               y="123.8168"
               transform="matrix(0.99803898,0.06259547,-0.10454169,0.99452051,0,0)"
               ry="12.70346" />
            <ellipse
               style="fill:#d6b81a;fill-opacity:1;fill-rule:evenodd;stroke:none;stroke-width:23.7497;stroke-linecap:square;stroke-linejoin:miter;stroke-miterlimit:4;stroke-dasharray:none;stroke-dashoffset:0;stroke-opacity:1;paint-order:stroke markers fill"
               id="path925"
               cx="68.939865"
               cy="150.88028"
               transform="matrix(0.99803898,0.06259547,-0.10454169,0.99452051,0,0)"
               rx="19.66947"
               ry="15.247065" />
          </g>
          <g
             inkscape:export-ydpi="123.94392"
             inkscape:export-xdpi="123.94392"
             id="g942"
             transform="matrix(0.46734918,0,0,0.46734918,73.626776,125.10114)">
            <rect
               ry="20.374033"
               transform="matrix(0.99803898,0.06259547,-0.10454169,0.99452051,0,0)"
               y="72.1147"
               x="-168.34836"
               height="157.05399"
               width="320.52322"
               id="rect936"
               style="fill:#633320;fill-opacity:1;fill-rule:evenodd;stroke:none;stroke-width:23.7497;stroke-linecap:square;stroke-linejoin:miter;stroke-miterlimit:4;stroke-dasharray:none;stroke-dashoffset:0;stroke-opacity:1;paint-order:stroke markers fill" />
            <rect
               ry="12.70346"
               transform="matrix(0.99803898,0.06259547,-0.10454169,0.99452051,0,0)"
               y="123.8168"
               x="35.718311"
               height="54.171009"
               width="130.05992"
               id="rect938"
               style="fill:#331a11;fill-opacity:1;fill-rule:evenodd;stroke:none;stroke-width:23.7497;stroke-linecap:square;stroke-linejoin:miter;stroke-miterlimit:4;stroke-dasharray:none;stroke-dashoffset:0;stroke-opacity:1;paint-order:stroke markers fill" />
            <ellipse
               ry="15.247065"
               rx="19.66947"
               transform="matrix(0.99803898,0.06259547,-0.10454169,0.99452051,0,0)"
               cy="150.88028"
               cx="68.939865"
               id="ellipse940"
               style="fill:#d6b81a;fill-opacity:1;fill-rule:evenodd;stroke:none;stroke-width:23.7497;stroke-linecap:square;stroke-linejoin:miter;stroke-miterlimit:4;stroke-dasharray:none;stroke-dashoffset:0;stroke-opacity:1;paint-order:stroke markers fill" />
          </g>
          <rect
             inkscape:export-ydpi="123.94392"
             inkscape:export-xdpi="123.94392"
             ry="1.1331923"
             transform="matrix(0.61882022,0.78553264,-0.9050154,0.4253788,0,0)"
             y="174.35126"
             x="139.23096"
             height="4.8828278"
             width="47.379978"
             id="rect948"
             style="fill:#000000;fill-opacity:1;fill-rule:evenodd;stroke:none;stroke-width:9.27941;stroke-linecap:square;stroke-linejoin:miter;stroke-miterlimit:4;stroke-dasharray:none;stroke-dashoffset:0;stroke-opacity:1;paint-order:stroke markers fill" />
          <rect
             inkscape:export-ydpi="123.94392"
             inkscape:export-xdpi="123.94392"
             style="fill:#000000;fill-opacity:1;fill-rule:evenodd;stroke:none;stroke-width:9.16275;stroke-linecap:square;stroke-linejoin:miter;stroke-miterlimit:4;stroke-dasharray:none;stroke-dashoffset:0;stroke-opacity:1;paint-order:stroke markers fill"
             id="rect954"
             width="43.664169"
             height="5.1659966"
             x="183.12422"
             y="73.453705"
             transform="matrix(-0.10473144,0.99450054,-0.9980318,-0.0627099,0,0)"
             ry="1.1989094" />
          <g
             inkscape:export-ydpi="123.94392"
             inkscape:export-xdpi="123.94392"
             transform="matrix(0.46734918,0,0,0.46734918,-399.28992,93.554419)"
             id="g946">
            <circle
               r="73.305214"
               cy="149.09938"
               cx="684.51385"
               id="circle932"
               style="fill:#a67b10;fill-opacity:1;fill-rule:evenodd;stroke:#e1be00;stroke-width:14.5435;stroke-linecap:square;stroke-linejoin:miter;stroke-miterlimit:4;stroke-dasharray:none;stroke-dashoffset:0;stroke-opacity:1;paint-order:stroke markers fill" />
            <path
               id="path934"
               d="m 666.59972,202.5746 v -9.73114 l -11.70975,-0.0523 -11.70976,-0.0523 0.0515,-0.6083 c 0.0503,-0.59417 0.51259,-3.38267 1.64711,-9.93556 l 0.56169,-3.24426 4.95284,-0.10138 4.95284,-0.10138 0.96202,-0.5655 c 0.94802,-0.55727 1.4518,-1.24655 1.80101,-2.46416 0.0979,-0.34128 0.17841,-12.56483 0.17908,-27.18254 0.002,-30.20389 0.14556,-27.73011 -1.72551,-29.60707 -1.59936,-1.60439 -2.38406,-1.77891 -8.4655,-1.88274 l -5.01846,-0.0857 v -6.1617 -6.16171 h 11.76045 11.76044 v -9.631474 -9.631405 h 5.88023 5.88023 v 9.428638 9.428641 l 3.29496,-0.002 c 1.81223,-7.7e-4 3.91086,-0.0596 4.66363,-0.13071 l 1.36867,-0.12926 v -9.297919 -9.297934 h 5.88022 5.88022 v 9.613581 9.613582 l 0.76038,0.11957 c 0.4182,0.0658 1.90332,0.2565 3.30024,0.42386 3.05752,0.3663 7.22911,1.28315 9.55001,2.09892 8.538,3.00104 12.8266,7.48864 14.37562,15.04273 0.58594,2.85744 0.49777,7.9359 -0.18115,10.43371 -1.1948,4.39573 -3.83695,7.94527 -7.64747,10.2738 -1.38345,0.84541 -1.66847,1.09622 -1.37132,1.20672 0.20632,0.0767 1.28757,0.43521 2.40279,0.79667 3.72391,1.20696 6.85014,3.08377 9.0878,5.45581 2.38473,2.52795 3.41252,4.40844 4.32701,7.91695 0.52089,1.99839 0.55458,2.39034 0.54905,6.38714 -0.005,3.8636 -0.0577,4.5023 -0.56546,6.89406 -1.12573,5.30301 -3.19241,9.32145 -6.39762,12.43948 -4.73823,4.60936 -12.89291,7.52373 -23.32348,8.3355 -1.50554,0.11718 -3.21638,0.26485 -3.80187,0.32817 l -1.06453,0.11511 v 9.71821 9.71819 h -5.88022 -5.88022 v -9.51272 -9.51272 l -1.47006,-0.13097 c -0.80852,-0.072 -2.88435,-0.10263 -4.61293,-0.068 l -3.14289,0.063 -0.0526,9.58072 -0.0526,9.58071 h -5.87824 -5.87824 z m 22.20293,-23.73032 c 9.1737,-0.39509 15.34967,-2.00233 18.90697,-4.92038 1.95908,-1.60702 3.15538,-3.7735 3.5191,-6.37302 0.40565,-2.89916 -0.0571,-5.00912 -1.62545,-7.41159 -1.52264,-2.33247 -3.24268,-3.60784 -6.47109,-4.79819 -2.05863,-0.75904 -5.09334,-1.53167 -7.13132,-1.81562 -3.03404,-0.42272 -9.21912,-0.6645 -13.33189,-0.52115 l -4.10603,0.14312 v 12.84485 12.84487 l 2.58528,0.0634 c 1.4219,0.0349 2.67652,0.0816 2.78804,0.10399 0.11152,0.0223 2.3014,-0.0498 4.86639,-0.16025 z m -1.92627,-37.51047 c 4.62734,-0.25438 6.04035,-0.43984 9.13324,-1.19877 2.81258,-0.69015 4.26938,-1.3254 5.97284,-2.60452 2.77089,-2.08062 3.9577,-4.41764 3.95095,-7.77998 -0.0118,-5.8815 -3.69839,-9.56913 -11.09961,-11.1028 -2.80043,-0.58031 -7.11525,-0.86467 -12.01275,-0.79169 l -4.15672,0.0619 -0.0523,11.70045 -0.0523,11.70045 1.37032,0.071 c 0.75368,0.039 1.78093,0.0888 2.28277,0.11057 0.50185,0.0218 2.60048,-0.0532 4.66363,-0.16662 z"
               style="fill:#d8b618;fill-opacity:1;stroke-width:0.202766" />
          </g>
          <rect
             inkscape:export-ydpi="123.94392"
             inkscape:export-xdpi="123.94392"
             inkscape:transform-center-y="-10.346217"
             inkscape:transform-center-x="2.973137"
             style="fill:#000000;fill-opacity:1;fill-rule:evenodd;stroke:none;stroke-width:6.5327;stroke-linecap:square;stroke-linejoin:miter;stroke-miterlimit:4;stroke-dasharray:none;stroke-dashoffset:0;stroke-opacity:1;paint-order:stroke markers fill"
             id="rect950"
             width="32.248135"
             height="3.5555074"
             x="226.74591"
             y="-65.42012"
             transform="matrix(-0.46237972,0.88668202,-0.95484763,-0.29709596,0,0)"
             ry="0.8251518" />
          <rect
             inkscape:export-ydpi="123.94392"
             inkscape:export-xdpi="123.94392"
             ry="0.68926692"
             transform="matrix(-0.99878835,-0.04921215,-0.63896682,-0.7692343,0,0)"
             y="-341.46185"
             x="258.93222"
             height="2.9699914"
             width="17.583841"
             id="rect952"
             style="fill:#000000;fill-opacity:1;fill-rule:evenodd;stroke:none;stroke-width:4.40884;stroke-linecap:square;stroke-linejoin:miter;stroke-miterlimit:4;stroke-dasharray:none;stroke-dashoffset:0;stroke-opacity:1;paint-order:stroke markers fill"
             inkscape:transform-center-x="-0.5219088"
             inkscape:transform-center-y="-4.5846895" />
          <rect
             inkscape:export-ydpi="123.94392"
             inkscape:export-xdpi="123.94392"
             ry="0.71596986"
             transform="matrix(-0.89999161,0.43590721,-0.63024557,-0.77639586,0,0)"
             y="-160.63531"
             x="220.16878"
             height="3.0850523"
             width="37.568176"
             id="rect956"
             style="fill:#000000;fill-opacity:1;fill-rule:evenodd;stroke:none;stroke-width:6.56799;stroke-linecap:square;stroke-linejoin:miter;stroke-miterlimit:4;stroke-dasharray:none;stroke-dashoffset:0;stroke-opacity:1;paint-order:stroke markers fill"
             inkscape:transform-center-x="-3.6709199"
             inkscape:transform-center-y="-10.119691" />
          <rect
             inkscape:export-ydpi="123.94392"
             inkscape:export-xdpi="123.94392"
             inkscape:transform-center-y="-3.403911"
             inkscape:transform-center-x="-3.115319"
             style="fill:#000000;fill-opacity:1;fill-rule:evenodd;stroke:none;stroke-width:4.03417;stroke-linecap:square;stroke-linejoin:miter;stroke-miterlimit:4;stroke-dasharray:none;stroke-dashoffset:0;stroke-opacity:1;paint-order:stroke markers fill"
             id="rect958"
             width="16.090319"
             height="2.7174628"
             x="112.9757"
             y="-306.73929"
             transform="matrix(-0.84246889,-0.538745,0.07412153,-0.99724922,0,0)"
             ry="0.63066083" />
          <path
             inkscape:export-ydpi="123.94392"
             inkscape:export-xdpi="123.94392"
             sodipodi:nodetypes="cssccccc"
             d="m -234.9767,76.112558 c -0.51387,-0.03223 -0.97095,0.353882 -1.02477,0.865924 l -4.82341,45.885798 c -0.0538,0.51204 0.31663,0.95006 0.83048,0.98229 36.1265,1.38155 75.03537,5.48289 109.94948,7.57918 14.24127,0.81555 20.21064,16.93243 21.70321,18.00823 0,0 0.51977,-57.23378 -15.7857,-66.061335 -37.13201,-2.328863 -73.7173,-4.931225 -110.84929,-7.260087 z"
             style="fill:#ffffff;fill-opacity:1;fill-rule:evenodd;stroke:#000000;stroke-width:2.77362;stroke-linecap:square;stroke-linejoin:miter;stroke-miterlimit:4;stroke-dasharray:none;stroke-dashoffset:0;stroke-opacity:1;paint-order:stroke markers fill"
             id="rect960" />
          <text
             inkscape:export-ydpi="123.94392"
             inkscape:export-xdpi="123.94392"
             transform="matrix(0.78550551,0.05298509,-0.06305589,0.60735816,-497.27301,49.4179)"
             style="font-style:normal;font-weight:normal;font-size:33.4986px;line-height:1.25;font-family:sans-serif;letter-spacing:0px;word-spacing:0px;white-space:pre;shape-inside:url(#rect968);fill:#000000;fill-opacity:1;stroke:none;"
             id="text966"
             xml:space="preserve"><tspan
               x="350.89648"
               y="44.822004"><tspan
                 style="font-style:normal;font-variant:normal;font-weight:normal;font-stretch:normal;font-family:'Hack Nerd Font';-inkscape-font-specification:'Hack Nerd Font'"> BYE, </tspan></tspan><tspan
               x="350.89648"
               y="86.695253"><tspan
                 style="font-style:normal;font-variant:normal;font-weight:normal;font-stretch:normal;font-family:'Hack Nerd Font';-inkscape-font-specification:'Hack Nerd Font'">LOOSER</tspan></tspan></text>
        </g>
      </g>
    </g>
  </g>
</svg>
